<svg id="Layer_1" data-name="Layer 1" xmlns="http://www.w3.org/2000/svg" viewBox="0 0 377.86 377.86"><defs><style>.cls-1{fill:#fff;}</style></defs><path class="cls-1" d="M188.93,0C84.59,0,0,84.59,0,188.93S84.59,377.86,188.93,377.86s188.93-84.59,188.93-188.93S293.27,0,188.93,0ZM135.1,268c2.72,6,10,9.77,17.25,9.3s11.82-4.05,14.25-11c1.49-4.28,1.49-4.29,6-4.3,2.84,0,5.67,0,8.51,0,3.43,0,3.46.24,2.68,3.54C181.67,274.67,177,282,169,287c-12.56,7.85-36.51,6.81-47.54-10.12-4.23-6.5-6-13.87-6.58-21.54-.7-9.44.16-18.67,4.2-27.39,4.54-9.83,11.92-16.39,22.51-18.91a42.19,42.19,0,0,1,27.59,2.79c6.32,2.81,9.37,8.28,12.31,13.85,1.34,2.55,2,5.47,2.87,8.23.48,1.5-.28,2.26-1.73,2.3-2.09.06-4.17,0-6.26,0l0-.2c-2.45.25-4.9.64-7.36.65-.67,0-1.59-1-2-1.77a39.14,39.14,0,0,1-2.29-5.52c-1.2-3.58-4-5.18-7.32-6.18-10.17-3.08-19.26,1-23,11C130.16,245.46,130.06,256.89,135.1,268Zm-10.68-81.62h-5.21c0-2-.1-3.91,0-5.8.25-4.08.82-8.14.87-12.22.13-9.67,5-16.44,13.3-20.4a288.92,288.92,0,0,1,27.48-11.24c7.29-2.57,10.22-6.07,10.29-14.77a19.55,19.55,0,0,0-2.66-10.49c-1.85-3.13-2.82-6.76-4.43-10a8.43,8.43,0,0,0-3-3.45,7.6,7.6,0,0,1-3.87-6.32,30.73,30.73,0,0,1,0-4.5c.41-6.14.88-12.29,1.34-18.43.62-8.32,4.69-14.42,12-18.44,2.9-1.61,5.64-3.69,8.73-4.72,15-5,32.83,3.4,38.6,18A22.21,22.21,0,0,1,218,78.82a3.6,3.6,0,0,0,.82,4c2.66,3,1.74,11.68-1.55,14.34a20.55,20.55,0,0,0-6.76,9.61c-1.2,3.42-3.37,6.5-5.11,9.73a12.86,12.86,0,0,0-.7,10.44,11.19,11.19,0,0,0,4.26,4.87c6.49,4.45,14.12,6.3,21.43,8.86,3.69,1.29,7.36,2.68,11,4,7.24,2.56,11.18,8.19,13.6,15a35.17,35.17,0,0,1,1.49,8.32c.47,5.31.66,10.65,1.07,16,.18,2.27-1.16,2.41-2.81,2.41-8.6,0-17.19,0-25.78,0ZM260.79,213q-8.76,25.68-17.55,51.36c-2.53,7.41-5.1,14.82-7.53,22.27-.67,2.06-1.7,3-3.94,2.86-3.41-.17-6.84-.15-10.25,0a2.76,2.76,0,0,1-3.13-2.15c-2-6-4.17-12-6.24-17.95-4-11.59-8-23.19-12-34.76-2.38-6.84-4.87-13.64-7.23-20.48-1.33-3.87-.63-4.76,3.51-4.76,3.75,0,7.5,0,11.26,0,1.74,0,2.44.64,2.92,2.54,2.2,8.64,4.71,17.2,7.14,25.78q4.16,14.69,8.38,29.34c.26.9.65,1.76,1.2,3.26,2.43-8.73,4.62-16.73,6.9-24.7,3.22-11.23,6.47-22.44,9.84-33.62a3.56,3.56,0,0,1,2.45-2.14c3.9-.29,7.83-.28,11.75-.25C261.38,209.66,261.75,210.2,260.79,213Z"/></svg>