<svg id="Layer_1" data-name="Layer 1" xmlns="http://www.w3.org/2000/svg" viewBox="0 0 378.02 377.86"><defs><style>.cls-1{fill:#fff;}</style></defs><path class="cls-1" d="M305.92,207.14c103.65-1.17,191,85.63,189,192.52C493.12,500.19,410,585.05,305.53,585,202.92,584.91,114.61,499.92,117,391.29,119.22,291.16,202,206.36,305.92,207.14Zm53.29,115.11c0-11.66-.23-22.48.11-33.28.16-5.05-1.85-6.33-6.45-6.16-11.11.41-22.24.88-33.35.65-25.19-.53-41.59,18.45-42.82,39.51-.57,9.77-.66,19.58-.73,29.38,0,3.45-1.13,4.72-4.67,4.47-4.65-.32-9.33,0-14-.16-3.36-.09-4.79,1.24-4.7,4.74.18,7.16,0,14.33,0,21.5,0,15.09,0,15.09,15.2,14.16.5,0,1,0,1.49-.11,6.27-.88,6.35-.83,6.35,5.66q0,50.5,0,101c0,6.28.36,6.65,6.4,6.66H317.6c6.46,0,6.64-.19,6.64-6.87q0-50,0-100v-6.21c8.79,0,16.93-.17,25.06.07,4.18.13,6.09-1.17,6.22-5.57.15-4.93,1-9.84,1.44-14.77.56-6.66,1-13.33,1.48-20.29-10.84,0-20.66,0-30.47,0-2.43,0-4.89.15-4.72-3.41.34-7.13.34-14.3,1.15-21.37.52-4.62,3.65-7.79,8.44-8.63a66.29,66.29,0,0,1,9.32-.94C347.58,322.14,353,322.25,359.21,322.25Z" transform="translate(-116.96 -207.12)"/></svg>