<svg id="Layer_1" data-name="Layer 1" xmlns="http://www.w3.org/2000/svg" viewBox="0 0 378.11 378.43"><defs><style>.cls-1{fill:#fff;}</style></defs><path class="cls-1" d="M287,546.5H271a41.66,41.66,0,0,0-4.51-1c-7.17-.75-14.45-.88-21.51-2.2a189.28,189.28,0,0,1-55.32-19.55,187.09,187.09,0,0,1-65.31-57.6c-19.36-27.51-30.91-58.11-33.54-91.5-1.24-15.67.4-31.67,1.81-47.42,1.54-17.3,7.3-33.62,14.56-49.32a187,187,0,0,1,44.67-60.81A198.24,198.24,0,0,1,191,189.57a176.58,176.58,0,0,1,71.16-20.8c19.34-1.46,38.84-.82,58,3.69,38.9,9.14,72,27.93,98.92,57.71a186.4,186.4,0,0,1,34.49,54.23c8.61,20.84,13.83,42.42,14,65.09a22.79,22.79,0,0,0,1,4.52v6a6.61,6.61,0,0,0-.95,2c-.72,8.5-1.05,17-2.11,25.49a159.13,159.13,0,0,1-13.61,46.55c-11.71,25.63-27.77,48-49.34,66.41a185.2,185.2,0,0,1-39.76,26.45c-23.23,11.18-47.64,18.4-73.73,18.64C288.32,545.56,287.65,546.17,287,546.5ZM308.7,426.88c7.08,9.41,9.18,19.56,9.14,30.35-.06,13.46,0,26.92,0,40.39,0,8.93,4.28,12.05,12.7,9,29.79-10.9,54.44-29,73-54.65,24-33,34.63-70.11,31.25-111.1a158.11,158.11,0,0,0-15.91-57.92,161.29,161.29,0,0,0-47.4-57.45,152.25,152.25,0,0,0-80.83-30.89,146,146,0,0,0-43.89,2.85c-26,5.78-49.42,17-69.57,34.55a157.55,157.55,0,0,0-42.51,58.37,149.69,149.69,0,0,0-12.17,54.47c-.25,9.58.22,19.21.88,28.79a145.41,145.41,0,0,0,12.76,49.76c11.35,25.39,29.11,45.45,51.22,61.83,12.59,9.33,26,17.2,41.2,21.77,5.65,1.7,10.23-.06,10.4-4.69.38-9.76.12-19.54.12-29.43-3.34.33-6.29.43-9.17.93-19,3.33-38.44-6.6-44.71-25.77a40.18,40.18,0,0,0-14.77-20c-2.71-2-4.66-5.05-7.27-8,9.55-3,13.26-3.11,19.51,2a73.77,73.77,0,0,1,13.21,14.5c9.92,14.1,25.07,19,40,12.28,1.46-.66,3.4-1.48,3.93-2.72,2.74-6.46,5.09-13.08,7.72-20-5.81-1.19-11.17-2-16.37-3.39-19.38-5.2-35.45-14.83-44.44-33.79-4.35-9.17-6.35-18.84-7.64-28.87-2.5-19.27.56-37,12.07-53a12,12,0,0,0,1.62-8.69c-2.44-10.62-1.64-21,1.24-31.26,2-7,3.73-7.92,10.71-6.37a78.74,78.74,0,0,1,29.05,13c3.76,2.7,7.45,3,11.63,1.94,19.14-4.72,38.35-6,57.78-1.53,7.78,1.77,16.12,3,23-2,8.95-6.5,19.53-8.13,29.46-11.72,3.43-1.25,6.06.59,6.85,3.78,2.42,9.75,5,19.59,2.28,29.7-1.65,6.14-.35,11.38,2.59,16.93,4,7.51,7.92,15.29,10.1,23.43,3.12,11.65,1.43,23.67-.81,35.41-4.72,24.81-18.12,42.38-42.81,50.11C325.76,422.35,317.51,424.42,308.7,426.88Z" transform="translate(-90.39 -168.07)"/></svg>