<svg id="Layer_1" data-name="Layer 1" xmlns="http://www.w3.org/2000/svg" viewBox="0 0 512 512"><defs><style>.cls-1{fill:#fff;}</style></defs><path class="cls-1" d="M267,74h22c1.54.46,3.06,1.26,4.61,1.32a222.9,222.9,0,0,1,56.81,9.88C418.54,106.07,469.61,148,503.6,210.53A240.83,240.83,0,0,1,531.66,302c.58,5.69,1.55,11.35,2.34,17v22c-.46,1.54-1.26,3.06-1.32,4.61a222.9,222.9,0,0,1-9.88,56.81C501.93,470.54,460,521.61,397.47,555.6A240.83,240.83,0,0,1,306,583.66c-5.69.58-11.35,1.55-17,2.34H267a38.94,38.94,0,0,0-5.11-1.36c-11.68-1.51-23.6-1.94-35-4.52Q98.91,551.29,44,431.94A230.36,230.36,0,0,1,24.34,358c-.57-5.69-1.55-11.35-2.34-17V319c.46-1.54,1.26-3.06,1.32-4.61a222.9,222.9,0,0,1,9.88-56.81C54.07,189.46,96,138.4,158.53,104.39a241.22,241.22,0,0,1,91.45-28C255.67,75.75,261.33,74.79,267,74Zm34,199c-1.44-7.47-1.44-7.47-9.18-7.47-16.33,0-32.67.09-49-.06-3.81,0-5.31,1.07-5.3,5.08q.12,102,0,204c0,4,1.36,5.11,5.24,5.06,15.82-.18,31.66,0,47.49-.1,10.72-.08,10.1,2.06,10.11-10.14q0-60,0-120c0-2.78-.49-5.62,3-7.19,7.58-3.42,14.77-8,22.63-10.48,13.29-4.21,26-2.6,31.37,12a26.12,26.12,0,0,1,1.29,8.77q.12,59.25.06,118.48c0,8.53,0,8.53,8.26,8.53h48c6.54,0,6.56,0,6.56-6.48q0-61.74,0-123.47a63.87,63.87,0,0,0-.95-11.4c-8.69-46.85-45.65-76.88-97.93-69.81C315.39,269.3,308.37,271.37,301,273ZM146.52,372.5c0,33.81.08,67.63-.09,101.44,0,4.35,1.12,5.72,5.59,5.65,17.15-.25,34.31-.22,51.47,0,4.21.05,5.92-1,5.91-5.52q-.15-101.44,0-202.89c0-4.34-1.41-5.78-5.79-5.72-17,.21-34,.24-51,0-4.77-.08-6.24,1.26-6.21,6.13C146.62,305.2,146.52,338.85,146.52,372.5Zm70-166.48c1.26-16.81-12.19-39.12-38.48-39.24-22-.11-39,15.89-39.09,38.81,0,25.11,20.17,39.18,38.9,38.95C199.58,244.27,216.47,227.67,216.49,206Z" transform="translate(-22 -74)"/></svg>