<svg id="Layer_1" data-name="Layer 1" xmlns="http://www.w3.org/2000/svg" viewBox="0 0 381.69 382.11"><defs><style>.cls-1{fill:#fff;}</style></defs><path class="cls-1" d="M501.78,363.6c2.18,101-85.38,197.84-203.33,190.61-95.56-5.86-179.17-86.55-178.32-192.31C121,257.15,206,174,308.22,172.5,419,170.94,503.45,262.36,501.78,363.6ZM297.1,471.77h70.35c5,0,5,0,5-5.16q0-39.5,0-79c0-3.43.82-8-1-9.95-1.57-1.74-6.33-.44-9.64-.82-3.81-.44-4.48,1.24-4.46,4.68.14,23.58,0,47.16.16,70.74,0,3.68-1.14,4.52-4.65,4.51q-55.2-.19-110.39,0c-4,0-4.7-1.25-4.67-4.87.16-21.09.11-42.17,0-63.25,0-3.8,1-8.86-1-11-1.77-1.92-7.05-.46-10.74-.8-3.34-.32-4.21.9-4.2,4.19q.18,43.21,0,86.45c0,3.57,1.17,4.34,4.49,4.33C250,471.71,273.53,471.77,297.1,471.77Zm-.79-50.26c-13.83,0-27.66.07-41.49-.06-3,0-4.29.71-4.08,3.93a110.78,110.78,0,0,1,0,11.95c-.14,2.86.7,4.08,3.75,3.91,4.1-.23,8.22-.06,12.34-.06,23.67,0,47.35-.05,71,.06,3,0,4.26-.78,4.05-4a77.67,77.67,0,0,1,0-11.21c.27-3.52-.8-4.71-4.49-4.65C323.73,421.64,310,421.51,296.31,421.51Zm54-49.95a10.18,10.18,0,0,0-1.4-.85q-42-11.32-84-22.69c-2.17-.59-3,.26-3.54,2.05-1.09,3.84-2,7.73-3.23,11.51-1.07,3.26,0,4.6,3.25,5.46,14.56,3.83,29,7.93,43.58,11.87q17.85,4.83,35.73,9.48c1.53.4,3.55,1.63,4.42-.93C346.93,382.19,348.58,376.86,350.29,371.56ZM386.74,240.7c-4.78.83-8.59,1.41-12.38,2.16-4.78.93-5,1.34-4.18,6.3,1.64,9.83,3.26,19.66,5,29.48q4.44,25.61,9,51.18c.28,1.6,0,3.83,2.84,3.32,4.41-.81,8.81-1.65,13.21-2.48,2.23-.42,3.12-1.63,2.72-4-4.76-27.76-9.46-55.54-14.27-83.29C388.42,242.31,387.25,241.4,386.74,240.7Zm-21.62,105c4.58-3.17,8.87-6.12,13.14-9.11,1.93-1.35,1.92-2.91.57-4.78-2.24-3.14-4.32-6.4-6.51-9.58-13.53-19.58-27.13-39.12-40.55-58.77-2-2.93-3.71-3.07-6.27-1.07s-5.34,4.09-8.12,6-2.69,3.43-.88,6.08c13.95,20.35,27.74,40.81,41.59,61.22C360.32,338.89,362.64,342.1,365.12,345.65ZM251.53,407.29c2.86.32,5.06.6,7.27.8q14.9,1.37,29.79,2.69c16.39,1.43,32.79,2.77,49.17,4.32,3.59.34,5.08-.92,5.22-4.37s.33-6.73.67-10.07c.27-2.74-.56-4-3.54-4.27-7.57-.59-15.12-1.52-22.69-2.25-20-1.91-39.94-3.74-59.91-5.71-2.87-.29-4.27.72-4.53,3.48C252.5,396.86,252.05,401.8,251.53,407.29Zm21.94-88.66,78.29,46.73c3-5.34,5.77-10,8.2-14.92.38-.76-.5-2.89-1.37-3.41-24.11-14.33-48.29-28.52-72.45-42.77-1.66-1-3-1.12-4.14.63C279.24,309.28,276.52,313.71,273.47,318.63Z" transform="translate(-120.13 -172.48)"/></svg>